<svg viewBox="0 0 512 512" xmlns="http://www.w3.org/2000/svg"><path d="m512 256c0 141.386719-114.613281 256-256 256s-256-114.613281-256-256 114.613281-256 256-256 256 114.613281 256 256zm0 0" fill="#ffdf47"/><path d="m512 256c0-17.765625-1.8125-35.105469-5.257812-51.851562-46.875-47.128907-124.390626-124.476563-124.390626-124.476563-6.339843-7.148437-15.574218-11.671875-25.820312-11.671875h-201.0625c-18.996094 0-34.535156 15.539062-34.535156 34.53125v306.9375c0 9.992188 4.304687 19.023438 11.152344 25.34375 0 0 45.457031 45.613281 72.078124 71.933594 16.742188 3.441406 34.078126 5.253906 51.835938 5.253906 141.386719 0 256-114.613281 256-256zm0 0" fill="#fdc000"/><path d="m356.53125 444h-201.0625c-18.996094 0-34.535156-15.539062-34.535156-34.53125v-306.9375c0-18.992188 15.539062-34.53125 34.535156-34.53125h201.0625c18.996094 0 34.535156 15.539062 34.535156 34.53125v306.9375c0 18.992188-15.539062 34.53125-34.535156 34.53125zm0 0" fill="#9331b2"/><path d="m391.070312 102.53125v306.9375c0 18.992188-15.539062 34.53125-34.539062 34.53125h-100.53125v-376h100.53125c19 0 34.539062 15.539062 34.539062 34.53125zm0 0" fill="#5c1b6f"/><path d="m152.117188 109.390625h207.765624v112.960937h-207.765624zm0 0" fill="#00e8f2"/><path d="m256 109.390625h103.878906v112.960937h-103.878906zm0 0" fill="#00b7be"/><path d="m233.773438 295h-15.355469v-15.355469c0-6.058593-4.910157-10.96875-10.96875-10.96875h-7.3125c-6.058594 0-10.96875 4.910157-10.96875 10.96875v15.355469h-15.355469c-6.058594 0-10.96875 4.910156-10.96875 10.96875v7.3125c0 6.058594 4.910156 10.96875 10.96875 10.96875h15.355469v15.355469c0 6.058593 4.910156 10.96875 10.96875 10.96875h7.3125c6.058593 0 10.96875-4.910157 10.96875-10.96875v-15.355469h15.355469c6.058593 0 10.96875-4.910156 10.96875-10.96875v-7.3125c0-6.058594-4.910157-10.96875-10.96875-10.96875zm0 0" fill="#ff9a00"/><path d="m349.15625 296.515625c0 12.535156-10.15625 22.691406-22.6875 22.691406-12.535156 0-22.691406-10.15625-22.691406-22.691406 0-12.53125 10.15625-22.691406 22.691406-22.691406 12.53125 0 22.6875 10.160156 22.6875 22.691406zm0 0" fill="#c50a5b"/><path d="m303.730469 334.320312c0 9.65625-7.828125 17.484376-17.484375 17.484376s-17.484375-7.828126-17.484375-17.484376 7.828125-17.484374 17.484375-17.484374 17.484375 7.828124 17.484375 17.484374zm0 0" fill="#00b7be"/></svg>